<svg xmlns="http://www.w3.org/2000/svg" height="640" width="640" version="1.1">
	<g transform="translate(0 -412.36)">
		<g>
			<path 
      fill="#f5a84b"
      d="m10.7 1005.7q0 0.6 9-10.8 1.8-1.8 22.8-18 20.4-16.2 22.2-18l28.8-32.4q0-0.6 4.8-4.2 4.2-3.6 4.2-4.2 18-22.2 49.2-81.6 18-36 19.2-39.6 0-1.2 3-8.4l3-8.4q3-3.6 15.6-36 1.2-6 8.4-21.6 6-13.8 6-23.4 2.4-10.8-9.6-13.2-13.2-2.4-13.2-3-10.8 3.6-20.4 3.6l-1.2 1.8q-3 0-20.4 5.4t-30 5.4q-7.2 2.4-7.2-9 0-15.6-15-40.2-1.2-7.2 5.4-7.2 19.8 0 27.6 3.6l39.6-1.2h39.6q7.8 0 18-18 10.8-18 15.6-18-2.4 0 37.2 39.6 1.2 1.2 5.4 7.8 4.2 6 6.6 7.8-3 2.4 6-25.2 0-74.4-2.4-100.8 0-4.2-2.4-13.8-2.4-10.2-2.4-22.2-1.2-6.6-10.8-18-8.4-10.8-7.2-19.8 4.8-0.6 19.8-6.6 12-4.2 19.8-4.2 4.8 0 8.4 1.8 1.2 0 6 4.2 4.2 4.8 4.8 4.8l6 1.8q4.2 0 19.2 10.8 18 13.2 18 23.4 0-5.4-22.8 28.8-6 13.2-6 36.6 0 9.6 1.8 28.2 1.8 18 1.8 27 0 70.2-1.2 69l0.6 7.2q0.6 4.2 0.6 7.2 0 12.6-1.2 59.4-0.6 36.6 0 59.4l1.2 3.6v88.8q-1.2 3-1.2 7.2v10.2q0 18-10.8 35.4-13.2 22.8-36 28.8-3.6 0-13.2 1.2-10.8-3.6-15.6-20.4-4.8-18-19.2-24-1.2-4.8-9.6-8.4t-8.4-8.4q0-3.6 3.6-3.6 8.4 0 25.2 1.8 13.8 1.2 16.8 0.6l6-6q0-9.6 2.4-26.4t2.4-24q3.6-25.2 3.6-78 0-14.4-0.6-30l-0.6-24q0-7.2 1.2-9 0-5.4-1.8-25.8t-1.8-33.6l-1.2-4.2q-6.6 0-16.8 15-10.2 33.6-32.4 88.2v1.2q0 0.6-7.2 15-3 5.4-6.6 13.8-4.2 9.6-6.6 13.8-18 31.8-18 30 1.2-0.6-10.8 16.8-12.6 17.4-14.4 18l-68.4 68.4q-5.4 7.2-37.8 28.8-0.6 1.2-10.8 7.8-10.8 7.2-12.6 9-16.2 10.8-27 10.8-3.6 0-3.6-6zm364.2-441.04q0.6-13.8 6.6-13.8 3 1.2 4.2 3.6 0 10.2 1.2 28.2t1.2 27.6q0 28.8 12.6 28.8 10.2 0 26.4-12 18.6-13.2 18.6-27.6 0-9.6-10.8-26.4 0-4.8 16.2-6.6 19.2-1.8 23.4-4.8 19.2 0 37.8 30.6 12.6 3.6 12.6 21.6 0 13.8-7.8 18l-19.2 6q-54 21.6-57.6 21.6-5.4-3-21.6 10.8-4.2 0-12 3.6-9.6 4.2-9.6 9 0 29.4 18 59.4 3 4.2 6.6 13.2t6 13.8q1.8 4.2 5.4 7.2 4.8 4.2 7.2 7.2 29.4 37.2 103.2 81.6 2.4 2.4 7.2 4.8l4.8 3.6q21 13.2 28.8 13.2 39 11.4 46.8 20.4-7.2 4.8-24.6 4.8h-14.4q-49.2 0-85.2 28.8h-5.4q-4.8-3-37.8-36l-32.4-39.6q-37.2-43.8-50.4-128.4 1.2-1.8-0.6-7.8-3-7.2-3-10.2-1.2-3-1.2-9.6-0.6-5.4-2.4-8.4l1.2-136.2z"/>
		</g>
	</g>
</svg>